<?xml version="1.0" standalone="no"?>
<!DOCTYPE svg PUBLIC "-//W3C//DTD SVG 20010904//EN"
 "http://www.w3.org/TR/2001/REC-SVG-20010904/DTD/svg10.dtd">
<svg version="1.0" xmlns="http://www.w3.org/2000/svg"
 width="251.000000pt" height="251.000000pt" viewBox="0 0 251.000000 251.000000"
 preserveAspectRatio="xMidYMid meet">
<metadata>
Created by potrace 1.14, written by Peter Selinger 2001-2017
</metadata>
<g transform="translate(0.000000,251.000000) scale(0.100000,-0.100000)"
fill="#000000" stroke="none">
<path d="M1196 2431 c-4 -6 -15 -11 -25 -11 -35 0 -200 -80 -237 -115 -6 -5
-34 -30 -62 -54 -29 -24 -52 -50 -52 -57 0 -8 -5 -14 -11 -14 -6 0 -9 -6 -6
-14 3 -8 -1 -17 -9 -20 -8 -3 -13 -9 -13 -13 1 -4 -8 -29 -20 -56 -12 -26 -19
-52 -15 -59 4 -7 3 -8 -4 -4 -8 5 -12 -6 -13 -36 0 -24 -3 -65 -5 -93 -2 -27
-5 -62 -6 -77 -1 -16 -5 -28 -10 -28 -4 0 -8 -8 -8 -18 0 -10 -7 -27 -15 -38
-8 -12 -11 -24 -8 -28 3 -3 1 -6 -5 -6 -7 0 -12 -9 -12 -19 0 -11 -5 -23 -10
-26 -6 -4 -8 -11 -5 -16 4 -5 1 -9 -5 -9 -6 0 -8 -4 -5 -10 3 -5 3 -15 -1 -22
-4 -7 -9 -23 -10 -37 -2 -13 -8 -27 -14 -31 -7 -4 -11 -10 -9 -14 4 -12 -24
-76 -33 -76 -4 0 -7 -3 -6 -7 1 -5 -5 -24 -14 -43 -23 -50 -31 -74 -30 -82 1
-5 -3 -8 -8 -8 -6 0 -10 -6 -10 -13 0 -7 -11 -20 -24 -30 -13 -10 -28 -30 -32
-45 -9 -34 -9 -34 -18 -53 -10 -23 -14 -129 -5 -129 4 0 5 -10 2 -23 -10 -44
-15 -197 -6 -197 5 0 10 -7 10 -15 0 -18 22 -94 34 -117 12 -24 11 -31 -3 -22
-8 5 -7 1 2 -10 15 -19 23 -47 12 -43 -9 2 -62 -51 -65 -66 -1 -7 -10 -18 -19
-25 -10 -7 -18 -20 -18 -28 0 -8 -4 -14 -10 -14 -5 0 -10 -4 -10 -10 0 -17 20
-11 27 7 9 25 70 92 77 85 3 -3 6 0 6 7 0 7 5 9 12 5 8 -5 9 -2 4 12 -4 10 -4
16 -1 12 4 -3 18 0 33 8 17 9 30 10 38 3 7 -5 20 -12 30 -14 61 -14 129 -46
132 -60 2 -9 -6 -36 -17 -61 -12 -25 -19 -49 -16 -54 4 -6 2 -10 -3 -10 -7 0
-42 -62 -42 -76 0 -2 9 0 20 6 11 6 20 18 20 27 0 8 8 23 18 32 10 9 27 37 37
64 10 26 24 47 31 47 8 0 14 5 14 10 0 18 40 -9 52 -35 16 -34 3 -75 -22 -70
-14 3 -20 -2 -20 -14 0 -10 -3 -21 -7 -25 -5 -4 -8 -11 -8 -14 -1 -4 -7 -18
-14 -30 -16 -30 -24 -72 -13 -72 8 0 46 58 48 75 1 6 2 18 3 28 0 10 9 21 19
24 9 4 26 16 38 29 28 29 64 48 64 34 0 -6 4 -9 9 -6 9 6 26 -22 23 -36 -2 -9
9 -10 81 -12 27 0 50 1 52 4 2 3 31 5 64 4 34 0 61 3 61 8 0 17 29 7 35 -13 5
-16 10 -18 20 -9 29 24 37 -2 20 -63 -9 -35 7 -56 29 -38 11 9 13 19 5 37 -9
24 5 73 18 61 2 -3 5 -72 6 -154 2 -124 4 -148 17 -148 12 0 15 17 15 93 l0
92 35 30 c19 16 38 30 41 30 9 0 19 -27 19 -53 0 -16 3 -18 12 -9 9 9 8 24 -5
65 -22 69 -22 70 8 65 20 -4 25 0 31 26 9 42 12 46 30 39 10 -4 11 -9 4 -18
-7 -8 -5 -12 5 -12 8 0 12 3 10 6 -2 4 3 15 11 26 8 10 14 15 14 9 0 -5 5 -2
10 6 9 13 11 13 20 0 5 -8 10 -10 10 -4 0 7 9 14 20 17 12 3 18 1 14 -5 -4 -6
2 -8 17 -4 13 3 18 3 11 0 -6 -3 -10 -10 -6 -15 3 -5 -6 -5 -20 1 -27 10 -34
2 -15 -17 15 -15 73 12 63 29 -4 7 -3 8 5 4 7 -5 24 4 42 23 16 17 31 31 34
31 3 0 10 0 16 0 5 0 8 4 5 9 -3 5 1 12 10 15 8 3 12 11 9 16 -4 6 -3 9 2 8
11 -4 64 38 57 44 -2 3 2 11 11 18 8 7 15 20 15 29 0 9 5 22 12 29 7 7 9 12 5
12 -3 0 2 20 13 45 11 25 21 49 22 53 2 4 6 6 10 5 4 -2 10 7 14 19 3 12 21
43 40 69 18 26 30 50 27 53 -4 3 -2 6 4 6 8 0 34 42 37 60 1 3 4 10 8 16 7 10
21 65 33 122 3 12 8 34 11 50 3 15 6 37 7 50 1 12 4 22 7 22 3 0 6 34 6 75 0
41 -3 75 -6 75 -3 0 -7 12 -8 28 -1 15 -7 29 -12 30 -6 2 -8 7 -5 12 3 5 -2
16 -11 24 -8 9 -13 16 -9 16 3 0 -6 16 -21 35 -24 31 -26 42 -22 97 3 35 10
64 16 66 7 2 12 10 12 18 0 8 8 26 17 41 21 32 25 174 4 181 -9 3 -9 7 1 20
10 12 10 14 1 8 -8 -4 -13 -2 -13 4 0 19 -34 57 -48 52 -6 -2 -12 0 -12 6 0 5
-19 8 -42 7 -74 -4 -103 15 -114 74 -5 23 -21 46 -36 49 -5 1 -9 2 -10 3 -16
7 -75 3 -80 -5 -5 -8 -8 -7 -8 1 0 6 -11 10 -25 8 -18 -1 -29 4 -37 19 -22 42
-127 132 -191 164 -73 37 -96 44 -149 46 -21 0 -38 3 -38 6 0 3 -13 6 -30 5
-16 0 -30 -3 -30 -6 0 -9 -44 -5 -51 5 -4 4 -10 3 -13 -3z m471 -1725 c-3 6 0
11 8 11 18 0 19 -9 3 -25 -7 -7 -9 -12 -5 -12 4 0 -2 -9 -13 -20 -27 -27 -32
-25 -29 13 4 44 8 50 27 35 9 -7 13 -8 9 -2z m116 -91 l26 -19 -27 -18 c-29
-19 -87 -24 -97 -8 -3 6 -2 10 4 10 6 0 8 6 6 13 -3 7 4 24 16 39 17 21 24 24
34 15 6 -7 24 -21 38 -32z"/>
<path d="M1580 424 c-14 -16 1 -26 18 -11 8 6 17 11 19 10 9 -7 23 -2 18 6 -7
13 -44 10 -55 -5z"/>
</g>
</svg>
