<?xml version="1.0" standalone="no"?>
<!DOCTYPE svg PUBLIC "-//W3C//DTD SVG 20010904//EN"
 "http://www.w3.org/TR/2001/REC-SVG-20010904/DTD/svg10.dtd">
<svg version="1.0" xmlns="http://www.w3.org/2000/svg"
 width="251.000000pt" height="251.000000pt" viewBox="0 0 251.000000 251.000000"
 preserveAspectRatio="xMidYMid meet">
<metadata>
Created by potrace 1.14, written by Peter Selinger 2001-2017
</metadata>
<g transform="translate(0.000000,251.000000) scale(0.100000,-0.100000)"
fill="#000000" stroke="none">
<path d="M1252 2422 c-9 -3 -9 -9 -1 -25 7 -11 15 -32 20 -46 l7 -26 1 28 c1
15 5 27 10 27 12 0 22 -29 15 -43 -3 -7 2 -3 10 7 9 11 19 16 23 12 12 -11
-12 -41 -36 -44 -12 -2 -25 -10 -28 -18 -10 -26 -103 64 -103 100 0 10 38 0
57 -14 17 -14 17 -14 0 6 -9 11 -14 24 -10 27 11 12 -31 7 -72 -9 -22 -8 -45
-16 -51 -17 -32 -7 -198 -124 -233 -164 -85 -95 -110 -160 -122 -313 -5 -63
-13 -116 -19 -118 -5 -2 -10 -9 -10 -15 0 -7 -14 -41 -30 -76 -17 -36 -40 -99
-51 -140 -11 -42 -29 -90 -40 -107 -10 -17 -32 -63 -48 -101 -15 -38 -44 -90
-63 -115 -43 -57 -62 -122 -55 -190 3 -29 1 -83 -5 -120 -8 -49 -8 -78 1 -110
28 -105 40 -145 55 -180 14 -33 14 -38 0 -52 -21 -21 -5 -20 18 1 18 16 25 15
123 -18 102 -33 104 -35 105 -64 0 -16 -9 -43 -20 -60 -23 -35 -27 -64 -7 -46
8 6 19 29 26 51 14 48 47 66 85 49 25 -12 50 -54 41 -70 -4 -5 -2 -9 4 -9 5 0
13 5 16 10 12 19 50 10 78 -20 l28 -29 112 5 c62 3 116 10 121 15 6 5 2 18
-11 31 -26 29 -43 62 -43 85 0 10 -34 74 -75 142 -45 74 -75 135 -75 151 0 16
-9 56 -19 91 -11 35 -31 110 -44 165 -14 56 -49 157 -77 225 -61 145 -70 206
-47 301 10 39 18 125 21 223 6 226 28 298 124 405 l49 55 108 -4 c59 -1 116
-8 126 -14 14 -9 22 -7 37 6 10 9 24 17 32 17 7 0 32 9 55 21 36 18 47 19 84
9 83 -22 182 -140 219 -262 12 -38 26 -116 32 -174 6 -59 20 -143 31 -188 11
-44 22 -126 26 -181 5 -86 2 -110 -16 -170 -25 -81 -66 -266 -76 -345 -4 -30
-15 -69 -25 -87 -15 -26 -17 -45 -13 -112 l6 -80 29 6 c28 5 29 4 26 -30 -1
-20 -5 -34 -9 -31 -13 8 -159 -173 -159 -197 0 -13 48 -11 56 2 4 6 31 9 69 7
55 -2 67 1 106 27 52 35 60 45 54 63 -3 7 0 10 6 7 24 -15 79 67 105 156 8 27
19 49 24 49 6 0 10 5 10 12 0 6 8 21 18 32 18 20 97 146 121 193 29 56 71 263
71 350 0 70 -26 148 -68 203 -36 47 -35 115 2 189 51 101 44 236 -16 286 -23
20 -41 25 -82 25 -64 0 -92 18 -106 71 -13 48 -36 59 -120 59 -50 0 -61 4 -75
23 -13 19 -17 20 -26 7 -9 -12 -10 -12 -5 4 11 33 -111 129 -209 165 -58 21
-180 41 -203 33z m-107 -50 c0 -18 -20 -15 -23 4 -3 10 1 15 10 12 7 -3 13
-10 13 -16z m47 -39 c36 -32 11 -46 -31 -17 -18 13 -20 18 -10 25 19 12 20 11
41 -8z m495 -165 c-3 -8 -6 -5 -6 6 -1 11 2 17 5 13 3 -3 4 -12 1 -19z m91
-1546 c30 -23 31 -26 16 -43 -21 -24 -93 -36 -105 -18 -13 20 -6 51 16 76 20
23 22 23 73 -15z"/>
<path d="M1298 2063 c7 -3 16 -2 19 1 4 3 -2 6 -13 5 -11 0 -14 -3 -6 -6z"/>
<path d="M1485 2044 c-16 -8 -38 -23 -49 -32 -24 -21 -59 -99 -51 -112 12 -20
32 -9 48 25 18 39 89 95 120 95 33 0 85 -65 106 -133 14 -43 20 -53 20 -35 1
45 -36 131 -75 171 -40 41 -70 47 -119 21z"/>
<path d="M925 1987 c-32 -32 -61 -105 -52 -130 2 -7 7 4 11 24 3 20 17 48 31
63 35 38 76 34 155 -14 70 -43 90 -49 90 -24 0 31 -22 55 -80 84 -79 40 -113
39 -155 -3z"/>
<path d="M1492 1738 c-21 -21 -14 -66 13 -84 24 -16 27 -16 45 1 37 34 21 95
-25 95 -12 0 -26 -5 -33 -12z"/>
<path d="M1013 1729 c-23 -8 -39 -48 -30 -73 11 -27 42 -36 65 -20 45 31 14
112 -35 93z"/>
<path d="M1588 1568 c-2 -13 -1 -34 3 -48 5 -19 7 -14 8 23 1 50 -4 62 -11 25z"/>
<path d="M968 1512 c2 -37 -2 -87 -9 -111 -26 -94 -7 -240 33 -262 24 -13 82
-7 158 15 93 27 211 30 325 7 88 -18 103 -18 122 -6 23 15 44 72 42 115 -1 17
-4 12 -10 -16 -6 -23 -18 -49 -28 -58 -16 -15 -22 -14 -77 5 -32 11 -63 25
-68 30 -6 5 -20 9 -32 9 -17 0 -21 4 -17 20 7 28 -13 25 -33 -6 -41 -61 -102
-63 -156 -3 -34 36 -48 37 -48 2 0 -24 -9 -32 -68 -60 -81 -40 -97 -41 -118
-8 -15 23 -16 47 -10 204 4 99 4 181 -1 184 -4 3 -7 -25 -5 -61z"/>
<path d="M1601 1464 c0 -11 3 -14 6 -6 3 7 2 16 -1 19 -3 4 -6 -2 -5 -13z"/>
<path d="M1617 1420 c3 -14 10 -41 14 -60 7 -34 7 -34 7 -5 1 17 -5 44 -13 60
-12 24 -14 25 -8 5z"/>
<path d="M1242 1129 c-69 -9 -89 -20 -103 -57 -13 -35 -5 -37 31 -10 27 19 46
24 124 26 68 3 102 0 131 -12 21 -9 40 -15 42 -12 9 8 -60 56 -95 66 -41 11
-40 11 -130 -1z"/>
<path d="M756 294 c-4 -9 -4 -19 -1 -22 2 -3 7 3 11 12 4 9 4 19 1 22 -2 3 -7
-3 -11 -12z"/>
</g>
</svg>
